<svg xmlns="http://www.w3.org/2000/svg" xmlns:xlink="http://www.w3.org/1999/xlink" viewBox="0 0 18 18"><defs><style>.cls-1{fill:none;}.cls-2{fill:#fff;}.cls-3{clip-path:url(#clip-path);}.cls-4{fill:#fbbc05;}.cls-5{fill:#ea4335;}.cls-6{fill:#34a853;}.cls-7{fill:#4285f4;}</style><clipPath id="clip-path"><path class="cls-1" d="M15.65,7.76H9.16v2.63H12.9C12.55,12.06,11.09,13,9.16,13a4,4,0,1,1,0-8,4.1,4.1,0,0,1,2.56.89l2-2a7,7,0,0,0-4.59-1.7A6.87,6.87,0,0,0,2.19,9a6.87,6.87,0,0,0,7,6.81A6.5,6.5,0,0,0,15.81,9,5.27,5.27,0,0,0,15.65,7.76Z"/></clipPath></defs><g id="Layer_2" data-name="Layer 2"><g id="Layer_1-2" data-name="Layer 1"><rect class="cls-2" width="18" height="18" rx="9"/><g class="cls-3"><path class="cls-4" d="M1.56,13V5L6.94,9Z"/></g><g class="cls-3"><path class="cls-5" d="M1.56,5,6.94,9,9.16,7.11l7.6-1.2V1.57H1.56Z"/></g><g class="cls-3"><path class="cls-6" d="M1.56,13l9.5-7.11,2.5.3,3.2-4.64V16.43H1.56Z"/></g><g class="cls-3"><path class="cls-7" d="M16.76,16.43,6.94,9,5.67,8.07,16.76,5Z"/></g></g></g></svg>